<?xml version="1.0" encoding="utf-8"?>
<!-- Generator: Adobe Illustrator 27.5.0, SVG Export Plug-In . SVG Version: 6.00 Build 0)  -->
<svg version="1.1" id="Capa_2" xmlns="http://www.w3.org/2000/svg" xmlns:xlink="http://www.w3.org/1999/xlink" x="0px" y="0px"
	 viewBox="0 0 2122 2122" style="enable-background:new 0 0 2122 2122;" xml:space="preserve">
<path style="fill:#9CC54B;" d="M1618.866,1571.063l0.606-0.277l0.455-0.213l0.538-0.254l0.455-0.22l0.559-0.273l0.447-0.221
	l0.552-0.278l0.432-0.22l0.562-0.292l0.447-0.234l0.572-0.306l0.4-0.215l0.933-0.514l0.445-0.25l0.532-0.302l0.52-0.3l0.409-0.238
	l0.557-0.329l0.415-0.248l0.532-0.322l0.419-0.257l0.542-0.336l0.396-0.249l0.534-0.338l0.407-0.263
	c0.765-0.494,1.525-0.998,2.279-1.514l0.025-0.017l0.734-0.507l0.173-0.12l0.716-0.506l0.174-0.124l0.73-0.526l0.129-0.093
	l0.77-0.566l0.056-0.042c35.053-26.041,57.35-74.718,38.462-110.202l-0.001,0h0.001h-0.001h0.001
	c-53.354-10.29-89.533-22.245-118.359-36.698l-0.026-0.014c-1.805-0.905-3.58-1.82-5.33-2.745l-0.299-0.159
	c-1.135-0.602-2.258-1.208-3.372-1.818l-0.938-0.516c-2.315-1.281-4.584-2.58-6.816-3.898l-0.944-0.56
	c-2.206-1.316-4.375-2.65-6.512-4.004l-0.949-0.605c-2.685-1.716-5.323-3.463-7.922-5.244c-1.063-0.727-2.118-1.46-3.169-2.199
	c-5.175-3.635-10.219-7.401-15.232-11.31c-1.131-0.881-2.26-1.771-3.389-2.667c-0.752-0.597-1.505-1.198-2.256-1.802l-1.129-0.908
	c-1.504-1.214-3.01-2.442-4.52-3.682c-2.642-2.171-5.295-4.383-7.974-6.637c-1.53-1.288-3.069-2.589-4.619-3.905
	c-0.775-0.658-1.552-1.319-2.333-1.984l-1.173-1c-2.039-1.739-4.077-3.572-6.115-5.354l-0.016,0.057
	c-1.247-1.091-2.495-2.188-3.742-3.293l-0.142-0.125c-1.061-0.941-2.121-1.886-3.182-2.837l-0.112-0.101
	c-1.054-0.944-2.107-1.893-3.162-2.846l-0.215-0.195c-1.057-0.957-2.114-1.918-3.172-2.883l-0.038-0.034
	c-1.044-0.952-2.088-1.909-3.132-2.869l-0.422-0.388c-0.911-0.838-1.823-1.678-2.734-2.521l-0.686-0.634
	c-0.906-0.839-1.813-1.679-2.719-2.522l-0.579-0.538c-0.819-0.761-1.637-1.525-2.457-2.289l-1.201-1.121
	c-0.513-0.479-1.027-0.96-1.541-1.441c-69.508-65.049-142.323-139.447-244.794-122.846c-49.859,8.077-92.739,39.048-140.365,55.868
	c-17.025,6.012-34.517,10.165-52.279,12.868c-20.704-116.451-29.998-209.899-29.466-296.731
	c65.738-37.835,119.069-60.755,164.165-73.936c29.94,64.905,87.95,116.291,156.021,138.119
	c68.555,21.984,146.244,13.643,208.571-22.39c83.75-48.419,133.165-138.54,175.393-225.577c-0.507,0.076-1.014,0.148-1.52,0.22
	l0.026-0.032c-77.972,10.992-151.132-39.255-228.171-57.62l-0.384-0.092c-0.502-0.119-1.002-0.235-1.504-0.351l-0.383-0.089
	c-0.452-0.104-0.903-0.205-1.354-0.307l-0.547-0.124c-1.893-0.421-3.788-0.823-5.685-1.202c-9.669-1.935-19.442-3.314-29.263-4.148
	c-0.982-0.083-1.964-0.162-2.947-0.234c-6.88-0.507-13.78-0.748-20.68-0.725c-1.972,0.007-3.943,0.036-5.913,0.085
	c-1.971,0.05-3.941,0.121-5.911,0.213c-3.861,0.182-7.719,0.446-11.57,0.792c-1.059,0.095-2.117,0.195-3.176,0.302
	c-1.858,0.189-3.714,0.397-5.569,0.624c-1.082,0.132-2.163,0.27-3.242,0.415c-1.955,0.262-3.906,0.546-5.854,0.851
	c-3.738,0.584-7.463,1.248-11.172,1.987c-1.125,0.224-2.249,0.453-3.371,0.691c-0.964,0.205-1.927,0.414-2.89,0.629
	c-1.924,0.43-3.844,0.882-5.758,1.353c-9.572,2.358-19.016,5.234-28.271,8.62c-1.851,0.677-3.695,1.375-5.531,2.092
	c-11.014,4.307-21.742,9.344-32.082,15.096c-3.447,1.917-6.838,3.909-10.17,5.971c-12.496,7.737-24.182,16.482-35.004,26.115
	c-1.443,1.284-2.871,2.584-4.283,3.899c-1.412,1.316-2.809,2.647-4.19,3.993c-0.69,0.673-1.377,1.35-2.06,2.031
	c-2.047,2.042-4.062,4.117-6.039,6.226c-0.659,0.702-1.314,1.409-1.966,2.119c-1.302,1.421-2.588,2.855-3.859,4.304
	c-0.635,0.724-1.267,1.452-1.894,2.184c-4.031,4.701-7.892,9.549-11.587,14.529c-1.242,1.674-2.466,3.364-3.669,5.068
	c-0.616,0.873-1.228,1.748-1.833,2.629c-0.347,0.504-0.692,1.009-1.036,1.515c-1.662,2.45-3.284,4.929-4.867,7.437
	c-8.589,13.603-16.016,28.038-22.205,43.144c-45.739,12.857-99.843,35.631-166.662,73.742c0.074-4.998,0.18-9.977,0.319-14.938
	c2.334-83.447,13.795-152.331,35.038-210.589c0.33-0.906,0.665-1.81,1.002-2.713c70.534,5.37,142.92-19.634,195.008-67.523
	c52.999-48.726,84.153-120.38,83.641-192.373c-0.688-96.737-54.6-184.241-109.384-263.974c-0.184,0.478-0.372,0.954-0.56,1.43
	l-0.015-0.039c-29.243,73.851-110.228,112.642-164.287,171.376l-0.182,0.196c-1.752,1.907-3.475,3.835-5.167,5.785
	c-26.492,30.539-45.745,67.219-56.321,106.229c-0.773,2.855-1.5,5.721-2.181,8.6c-1.134,4.796-2.137,9.623-3.007,14.474
	c-2.609,14.552-4.019,29.316-4.159,44.107c-0.019,1.972-0.014,3.941,0.013,5.906c0.028,1.966,0.078,3.927,0.151,5.886
	c0.036,0.979,0.078,1.958,0.127,2.935c0.238,4.887,0.62,9.75,1.138,14.584c0.104,0.967,0.213,1.933,0.328,2.898
	c0.345,2.894,0.739,5.779,1.182,8.651c0.295,1.915,0.614,3.826,0.952,5.731c0.339,1.905,0.699,3.805,1.081,5.7
	c0.572,2.842,1.193,5.672,1.861,8.489c1.782,7.511,3.901,14.931,6.346,22.241c0.612,1.827,1.242,3.648,1.894,5.462
	c1.629,4.535,3.384,9.025,5.262,13.468c0.751,1.777,1.522,3.546,2.312,5.308c0.79,1.762,1.599,3.515,2.429,5.26
	c0.828,1.746,1.677,3.483,2.544,5.211c1.454,2.9,2.966,5.775,4.528,8.626c0.766,1.399,1.541,2.793,2.331,4.179
	c1.443,2.528,2.927,5.036,4.452,7.522c1.017,1.658,2.052,3.306,3.106,4.945c2.106,3.278,4.286,6.516,6.535,9.714
	c1.126,1.599,2.268,3.188,3.429,4.767c0.58,0.789,1.165,1.576,1.753,2.36c1.815,2.417,3.672,4.807,5.569,7.173
	c-0.566,1.497-1.128,2.997-1.677,4.505c-21.561,59.128-33.189,128.884-35.549,213.254c-1.083,38.692-0.209,78.39,2.763,120.579
	c-38.184-60.082-72.772-102.759-104.883-133.915c0.675-6.609,1.118-13.216,1.327-19.811c0.061-1.925,0.102-3.848,0.123-5.77
	c0.01-0.974,0.016-1.948,0.016-2.921c0.008-21.409-2.465-42.622-7.458-63.224c-0.226-0.936-0.459-1.871-0.696-2.805
	c-0.949-3.736-1.982-7.45-3.098-11.141c-0.279-0.922-0.564-1.844-0.853-2.764c-4.053-12.878-9.131-25.462-15.245-37.645
	c-0.874-1.74-1.768-3.473-2.684-5.197c-0.915-1.724-1.852-3.439-2.81-5.145c-2.395-4.266-4.922-8.477-7.582-12.628
	c-5.852-9.132-12.276-17.89-19.207-26.225c-1.261-1.516-2.537-3.017-3.831-4.505c-6.468-7.437-13.347-14.516-20.589-21.205
	c-1.448-1.338-2.912-2.659-4.389-3.965c-3.693-3.265-7.474-6.43-11.338-9.492c-6.183-4.897-12.577-9.529-19.159-13.874
	c-1.645-1.087-3.302-2.155-4.971-3.206c-8.342-5.252-16.968-10.053-25.831-14.365c-0.886-0.431-1.775-0.857-2.666-1.279
	c-11.583-5.478-23.556-10.125-35.817-13.862c-78.704-23.986-171.789-11.467-237.961-60.054l0.009,0.041l-1.235-0.913
	c-4.021,96.656-3.171,199.431,47.668,281.735c37.833,61.252,102.311,105.385,173.102,118.484
	c70.621,13.068,146.422-4.951,203.621-48.378c32.491,32.451,67.653,77.304,107.177,141.167l0.638,0.796
	c4.637,55.809,12.857,116.185,24.977,184.396c-38.896,4.918-78.934,3.246-118.083-0.807
	c-59.934-6.204-119.452-17.745-179.698-18.711c-60.246-0.966-122.734,9.592-172.435,43.655
	c-49.702,34.063-86.785,97.329-72.932,154.575h0.012c2.844,11.637,8.499,22.763,16.35,31.363
	c12.556,13.753,28.684,22.692,45.944,29.443c0.909,0.355,1.819,0.704,2.734,1.048c0.914,0.343,1.831,0.681,2.751,1.014
	c0.46,0.166,0.92,0.331,1.381,0.495c1.844,0.655,3.696,1.289,5.556,1.906c1.394,0.463,2.791,0.915,4.192,1.36
	c1.399,0.444,2.801,0.881,4.205,1.31c0.468,0.143,0.936,0.285,1.403,0.427c1.404,0.424,2.808,0.842,4.212,1.254
	c0.468,0.137,0.936,0.274,1.404,0.41c0.935,0.272,1.871,0.542,2.805,0.81c0.934,0.268,1.868,0.535,2.8,0.8
	c0.933,0.265,1.863,0.528,2.794,0.791c7.439,2.099,14.975,4.243,22.433,6.632c0.465,0.149,0.931,0.299,1.397,0.45
	c0.93,0.303,1.86,0.61,2.788,0.92c0.927,0.311,1.854,0.626,2.777,0.947c0.924,0.32,1.846,0.646,2.765,0.975
	c1.379,0.495,2.752,1.003,4.119,1.523c0.584,0.223,1.167,0.448,1.748,0.676c2.396,0.935,4.77,1.914,7.115,2.942
	c0.639,0.279,1.276,0.561,1.909,0.849l1.321,0.605c0.65,0.301,1.296,0.608,1.941,0.918c1.384,0.664,2.756,1.349,4.115,2.056
	c0.806,0.419,1.607,0.845,2.404,1.28l1.132,0.625c1.817,1.014,3.607,2.069,5.366,3.172l0.552,0.348
	c6.798,4.313,13.135,9.326,18.805,15.274c11.717,12.289,19.675,27.546,26.003,43.98c0.192,0.498,0.383,0.997,0.571,1.497
	c3.167,8.386,5.929,17.062,8.568,25.793l0.252,0.833c0.377,1.251,0.751,2.502,1.123,3.754c0.404,1.352,0.804,2.705,1.205,4.058
	c1.307,4.417,2.605,8.828,3.932,13.203l0.252,0.832c1.013,3.328,2.044,6.634,3.107,9.904l0.244,0.747
	c0.91,2.779,1.844,5.532,2.814,8.25l0.332,0.925c0.756,2.096,1.534,4.172,2.338,6.222c0.341,0.869,0.686,1.733,1.036,2.592
	c0.834,2.045,1.696,4.063,2.59,6.049l0.394,0.868c0.288,0.63,0.58,1.257,0.875,1.881c0.719,1.518,1.458,3.016,2.221,4.493
	c0.69,1.334,1.398,2.65,2.127,3.947l0.737,1.291c0.743,1.284,1.507,2.549,2.295,3.794c0.436,0.69,0.881,1.371,1.332,2.048
	l0.535,0.795c0.381,0.561,0.767,1.118,1.16,1.669c1.805,2.541,3.722,4.981,5.769,7.306c1.084,1.232,2.206,2.429,3.366,3.594
	l1.028,1.015c4.357,4.221,9.242,7.972,14.778,11.148c8.269,4.746,17.186,7.614,26.395,9.676l0.535,0.119
	c1.676,0.369,3.361,0.713,5.052,1.037c0.896,0.171,1.792,0.337,2.691,0.498s1.799,0.318,2.701,0.471
	c2.184,0.371,4.376,0.72,6.572,1.062l0.395,0.062c2.589,0.402,5.184,0.795,7.776,1.202c0.525,0.082,1.049,0.165,1.574,0.248
	c0.844,0.134,1.687,0.271,2.53,0.409l0.385,0.063c2.581,0.427,5.154,0.88,7.714,1.38c1.504,0.294,3.002,0.604,4.495,0.935
	c0.811,0.179,1.62,0.364,2.426,0.557c1.777,0.424,3.543,0.881,5.297,1.379l1.291,0.375l0.094,0.028l1.124,0.341l0.316,0.099
	l0.892,0.283l0.399,0.13l0.871,0.289l0.36,0.122l0.867,0.301l0.388,0.136l1.198,0.436c6.675,2.487,12.895,5.656,18.755,9.369
	c0.78,0.496,1.557,1,2.325,1.514c4.612,3.085,9.002,6.506,13.219,10.194l1.05,0.927c0.698,0.622,1.392,1.251,2.08,1.887
	c1.722,1.59,3.418,3.224,5.087,4.894c2.004,2.005,3.973,4.065,5.912,6.171l0.968,1.057c0.643,0.707,1.284,1.419,1.921,2.135
	c3.506,3.941,6.927,8.022,10.297,12.188c0.613,0.758,1.224,1.518,1.834,2.281c3.049,3.814,6.064,7.69,9.072,11.587
	c0.602,0.78,1.203,1.56,1.804,2.34c0.601,0.781,1.203,1.562,1.805,2.344c0.601,0.782,1.204,1.563,1.806,2.345
	c0.903,1.172,1.807,2.345,2.713,3.516c0.604,0.78,1.209,1.561,1.814,2.339c1.817,2.337,3.644,4.665,5.485,6.977
	c0.614,0.77,1.229,1.539,1.846,2.305l0.927,1.148c0.62,0.764,1.241,1.526,1.864,2.284c0.624,0.759,1.25,1.515,1.877,2.268
	c0.942,1.129,1.891,2.252,2.845,3.366l0.957,1.112c1.278,1.479,2.568,2.943,3.871,4.389c0.978,1.085,1.963,2.16,2.957,3.223
	c1.656,1.774,3.336,3.516,5.042,5.224l1.027,1.02c6.181,6.095,12.721,11.716,19.783,16.626c1.364,0.948,2.744,1.866,4.137,2.753
	l1.049,0.66c0.489,0.305,0.981,0.605,1.475,0.902c1.812,1.092,3.646,2.133,5.502,3.126c2.533,1.355,5.107,2.619,7.715,3.792
	l0.844,0.376c0.52,0.23,1.041,0.456,1.565,0.679c0.487,0.207,0.974,0.412,1.464,0.613c5.192,2.133,10.512,3.921,15.927,5.381
	l0.498,0.133c8.568,2.277,17.371,3.736,26.282,4.437l1.227,0.092c9.38,0.664,18.872,0.492,28.328-0.442l0.236-0.024
	c1.967-0.197,3.932-0.427,5.894-0.689c0.465-0.062,0.931-0.126,1.396-0.192c2.803-0.397,5.6-0.86,8.386-1.386
	c1.391-0.263,2.778-0.542,4.163-0.837c0.637-0.136,1.273-0.274,1.909-0.416l0.548-0.124c0.624-0.141,1.247-0.285,1.87-0.433
	l0.58-0.139c0.611-0.147,1.22-0.297,1.829-0.45c0.612-0.154,1.222-0.31,1.831-0.469c0.591-0.155,1.18-0.312,1.77-0.472l0.66-0.181
	c0.577-0.159,1.153-0.321,1.729-0.485l0.691-0.199c0.564-0.164,1.126-0.329,1.688-0.498c4.657-1.397,9.255-2.969,13.776-4.706
	c0.473-0.182,0.945-0.366,1.416-0.551c1.694-0.667,3.377-1.355,5.047-2.067c1.099-0.469,2.194-0.95,3.284-1.436
	c0.825-0.368,1.649-0.74,2.469-1.118c2.978-1.369,5.922-2.8,8.835-4.291c0.707-0.362,1.413-0.727,2.116-1.096
	c3.572-1.872,7.098-3.832,10.578-5.874c9.862-5.785,19.363-12.223,28.553-19.16c0.79-0.596,1.578-1.197,2.363-1.801
	c1.82-1.398,3.627-2.815,5.423-4.251c1.051-0.84,2.098-1.686,3.141-2.539c0.871-0.712,1.74-1.428,2.605-2.148
	c0.83-0.691,1.656-1.385,2.481-2.082c1.619-1.369,3.231-2.751,4.833-4.147c1.26-1.099,2.514-2.206,3.763-3.319
	c1.873-1.671,3.734-3.359,5.584-5.062c1.814-1.671,3.618-3.357,5.41-5.055c0.667-0.632,1.332-1.265,1.995-1.9
	c1.171-1.121,2.337-2.248,3.499-3.379l0.092-0.09c2.399-2.336,4.777-4.695,7.138-7.07c1.168-1.176,2.332-2.355,3.491-3.539
	l0.073-0.074c1.143-1.167,2.281-2.339,3.417-3.513c0.602-0.622,1.201-1.245,1.8-1.868c0.582-0.605,1.162-1.211,1.741-1.818
	c1.158-1.214,2.313-2.431,3.463-3.65c2.301-2.439,4.586-4.889,6.857-7.345c4.463-4.826,8.915-9.708,13.365-14.626
	c1.112-1.229,2.224-2.461,3.336-3.695c2.225-2.468,4.449-4.943,6.674-7.424c1.113-1.241,2.226-2.482,3.339-3.725
	c0.557-0.622,1.115-1.243,1.671-1.865c1.67-1.866,3.342-3.734,5.015-5.603c0.558-0.623,1.116-1.246,1.674-1.869
	c2.232-2.493,4.467-4.986,6.706-7.479c0.56-0.623,1.12-1.246,1.68-1.869c57.146-63.538,117.004-125.866,196.956-146.618
	c52.358-13.59,109.205-7.644,158.964-29.254l0.186-0.082l0.809-0.357L1618.866,1571.063z"/>
<path style="fill:#3B6F2E;" d="M976.245,974.766c65.739-37.834,119.07-60.753,164.166-73.935
	c85.347-24.947,141.197-15.015,195.828-5.296c10.872,1.932,22.114,3.932,33.413,5.627c115.466,17.352,204.348-18.334,258.586-51.308
	c2.003-1.216,2.638-3.824,1.42-5.825c-1.213-2.003-3.83-2.633-5.825-1.423c-53.042,32.251-139.97,67.13-252.925,50.171
	c-11.184-1.681-22.368-3.669-33.186-5.593c-54.664-9.721-110.521-19.656-194.716,4.009c-45.739,12.856-99.842,35.629-166.66,73.738
	c0.074-4.998,0.18-9.977,0.319-14.938c2.333-83.447,13.795-152.331,35.038-210.589c0.33-0.906,0.665-1.81,1.002-2.713
	c22.106-59.194,58.43-110.932,93.575-160.99c13.978-19.907,28.432-40.494,41.907-61.4c42.699-66.234,83.788-145.026,64.799-227.213
	c-0.528-2.283-2.799-3.712-5.086-3.177c-2.283,0.526-3.705,2.804-3.177,5.086c18.277,79.109-21.925,155.963-63.664,220.709
	c-13.386,20.765-27.79,41.281-41.722,61.121c-35.114,50.015-71.391,101.691-93.923,161.169c-0.566,1.497-1.128,2.997-1.677,4.505
	c-21.562,59.128-33.189,128.884-35.549,213.254c-1.083,38.692-0.208,78.39,2.764,120.579
	c-38.185-60.081-72.772-102.757-104.883-133.912c-62.316-60.462-115.307-77.539-167.159-94.248
	c-11.247-3.622-22.879-7.371-34.399-11.503c-107.51-38.546-167.566-110.434-199.016-163.951c-1.186-2.019-3.786-2.699-5.805-1.508
	c-2.02,1.186-2.694,3.786-1.508,5.805c32.16,54.726,93.566,128.234,203.464,167.639c11.651,4.176,23.35,7.947,34.662,11.591
	c54.151,17.45,106.333,34.266,168.205,96.061c32.492,32.451,67.655,77.304,107.178,141.167l0.638,0.796
	c4.636,55.81,12.857,116.186,24.977,184.396c2.808-0.355,5.609-0.744,8.404-1.17C985.007,1155.048,975.714,1061.599,976.245,974.766
	z"/>
<path style="fill:#84AE33;" d="M1675.778,1449.895c-110.151-21.244-147.098-49.586-197.263-92.354
	c-80.926-68.994-160.232-174.209-280.161-154.78c-49.858,8.077-92.738,39.048-140.364,55.868
	c-17.025,6.013-34.517,10.165-52.28,12.868c-2.795,0.426-5.596,0.815-8.404,1.17c-38.896,4.919-78.934,3.246-118.083-0.807
	c-59.933-6.204-119.452-17.745-179.698-18.711c-60.247-0.967-122.734,9.592-172.435,43.655
	c-49.702,34.063-86.784,97.33-72.932,154.575h0.013c-0.121-0.493-0.237-0.988-0.348-1.483H1675.778z"/>
<path style="fill:#884E1D;" d="M1675.778,1449.895H453.823c0.111,0.495,0.228,0.99,0.348,1.483
	c2.844,11.637,8.499,22.763,16.35,31.363c21.148,23.164,52.425,32.672,82.181,41.068c29.757,8.396,61.06,17.505,82.688,40.19
	c45.446,47.668,34.341,139.98,90.984,172.488c25.426,14.592,56.968,11.444,84.336,21.638c56.964,21.22,80.724,92.116,130.946,127.03
	c43.665,30.357,102.766,28.939,151.431,8.183c48.663-20.756,88.663-58.324,125.003-97.627
	c71.397-77.216,140.084-168.73,240.417-194.773c52.358-13.59,109.205-7.644,158.964-29.254
	C1663.089,1551.871,1698.041,1491.719,1675.778,1449.895z"/>
<path style="fill:#7EAB36;" d="M465.496,666.719c28.061,47.753,78.9,110.13,165.896,150.396
	c26.967,8.802,54.792,15.541,81.59,24.477c24.704,8.238,49.051,17.854,72.018,30.191c21.217,11.396,43.697,24.914,59.342,43.582
	c1.155,1.378,2.261,2.776,3.324,4.193c6.047,5.216,12.179,10.823,18.404,16.862c6.057-59.358-6.648-118.628-38.96-169.052
	c-11.172-17.435-24.426-33.503-39.326-47.874c-1.419-1.369-2.852-2.722-4.3-4.06c-0.725-0.668-1.453-1.334-2.184-1.995
	c-2.195-1.983-4.421-3.93-6.678-5.841c-2.258-1.911-4.546-3.785-6.865-5.622c-1.546-1.224-3.105-2.432-4.676-3.623
	c-0.786-0.595-1.575-1.186-2.368-1.774c-1.584-1.173-3.181-2.33-4.79-3.469c-1.61-1.139-3.231-2.261-4.865-3.365
	c-2.451-1.656-4.928-3.273-7.431-4.849c-2.503-1.576-5.031-3.111-7.584-4.604c-3.403-1.991-6.849-3.908-10.336-5.748
	c-0.871-0.461-1.746-0.915-2.623-1.366c-5.26-2.704-10.608-5.234-16.034-7.583c-9.044-3.915-18.306-7.329-27.738-10.204
	c-1.847-0.563-3.702-1.106-5.566-1.63l-0.95-0.263l-0.93-0.258l-0.671-0.181l-1.205-0.326l-0.475-0.125
	c-0.476-0.126-0.951-0.252-1.428-0.376l-0.036-0.009c-76.189-19.77-163.657-10.597-226.7-56.886l0.009,0.041
	c4.933,23.747,11.424,47.093,20.896,69.271C463.557,664.777,464.783,665.505,465.496,666.719z"/>
<path style="fill:#7EAB36;" d="M1172.414,882.219c22.619-9.034,48.82-10.295,72.903-10.287c26.072,0.01,52.07,3.069,77.729,7.511
	c27.838,4.819,55.54,12.061,83.464,17.077c95.679,5.724,169.995-25.141,217.323-53.911c1.2-0.731,2.624-0.791,3.833-0.287
	c18.845-15.05,35.619-32.539,51.208-51.121l0.027-0.032c-81.291,11.46-157.35-43.644-238.029-59.785
	c-33.842-6.771-68.965-6.745-102.868-0.313c-1.938,0.367-3.871,0.756-5.8,1.165c-1.928,0.409-3.853,0.84-5.772,1.29
	c-1.919,0.451-3.834,0.922-5.743,1.415c-1.91,0.492-3.814,1.005-5.711,1.539c-0.949,0.267-1.896,0.539-2.842,0.816
	c-2.838,0.831-5.662,1.709-8.47,2.633c-3.746,1.232-7.464,2.545-11.152,3.94c-4.609,1.744-9.169,3.614-13.674,5.611
	c-7.208,3.194-14.274,6.711-21.168,10.546c-25.852,14.38-48.513,32.925-67.572,54.659c-2.541,2.898-5.018,5.853-7.431,8.862
	c-1.808,2.257-3.582,4.544-5.317,6.861s-3.434,4.663-5.095,7.039c-3.876,5.542-7.549,11.239-11.013,17.081
	c-1.98,3.338-3.891,6.722-5.733,10.152c-0.46,0.857-0.917,1.717-1.369,2.58c-4.066,7.764-7.781,15.751-11.134,23.934
	c7.456-2.095,14.689-3.927,21.719-5.519C1167.213,884.428,1169.772,883.273,1172.414,882.219z"/>
<path style="fill:#7EAB36;" d="M1010.167,699.496c3.329-24.128,15.185-47.526,27.097-68.458
	c12.896-22.658,28.406-43.745,44.952-63.854c32.817-39.885,72.446-75.371,95.287-122.395
	c21.622-44.514,29.644-94.851,25.131-143.999c-2.729-29.721-10.811-58.502-21.224-86.539l-0.015-0.039
	c-29.242,73.851-110.227,112.642-164.287,171.376l-0.181,0.196c-1.752,1.907-3.476,3.835-5.168,5.785
	c-12.923,14.897-24.123,31.256-33.434,48.634c-0.466,0.869-0.927,1.74-1.383,2.614c-2.737,5.243-5.301,10.576-7.693,15.987
	c-1.991,4.509-3.862,9.072-5.608,13.682c-0.698,1.844-1.376,3.695-2.036,5.554c-3.291,9.294-6.081,18.765-8.349,28.358
	c-0.454,1.919-0.886,3.842-1.298,5.77c-0.206,0.964-0.406,1.929-0.601,2.895c-0.391,1.932-0.76,3.869-1.108,5.809
	c-2.609,14.552-4.019,29.316-4.159,44.106c-0.578,61.213,21.107,119.367,59.322,167.016c1.325-3.497,2.697-6.967,4.114-10.412
	C1008.994,714.352,1009.131,707.003,1010.167,699.496z"/>
<path style="fill:#945621;" d="M1675.778,1449.895h-54.781c-4.391,6.733-9.611,12.946-15.939,18.241
	c-21.813,18.252-51.396,22.124-78.866,21.011c-30.214-1.224-59.9-8.257-89.568-13.556c-28.11-5.022-56.007-7.753-84.557-5.542
	c-59.012,4.569-118.341,25.083-162.093,66.002c-35.66,33.352-56.962,79.297-93.947,111.293
	c-17.431,15.079-40.114,26.02-63.421,26.91c-16.923,0.646-31.716-6.388-44.009-17.638c-27.345-25.023-42.141-60.897-70.088-85.445
	c-14.453-12.696-31.94-21.182-51.369-22.008c-25.752-1.093-44.469,16.239-66.323,26.574c-8.124,3.843-20.93,8.15-29.205,2.551
	c-6.989-4.729-9.169-15.357-10.463-23.04c-3.578-21.246,2.74-44.184-4.535-64.754c-9.797-27.698-40.389-31.662-66.14-30.469
	c-15.642,0.724-31.195,3.3-46.871,3.328c-15.53,0.027-31.301-0.739-46.758-2.236c-17.106-1.656-33.836-5.058-49.406-11.223h-93.616
	c0.11,0.496,0.228,0.99,0.349,1.483c2.844,11.637,8.498,22.763,16.35,31.363c21.147,23.163,52.425,32.672,82.18,41.067
	c4.352,1.228,8.736,2.471,13.119,3.769c1.461,0.433,2.922,0.872,4.381,1.319c1.167,0.358,2.333,0.72,3.498,1.088
	c1.164,0.368,2.328,0.741,3.489,1.121c1.16,0.38,2.319,0.766,3.474,1.159c1.733,0.591,3.459,1.197,5.177,1.823
	c1.145,0.417,2.286,0.842,3.423,1.276c1.136,0.435,2.268,0.878,3.394,1.331c1.127,0.453,2.249,0.917,3.363,1.39
	c3.904,1.658,7.733,3.446,11.461,5.397c1.866,0.976,3.707,1.995,5.518,3.057c0.954,0.56,1.901,1.132,2.839,1.717
	c0.762,0.475,1.518,0.959,2.267,1.452l1.2,0.799c1.257,0.85,2.496,1.724,3.717,2.627l0.781,0.583
	c4.096,3.089,7.976,6.496,11.586,10.281c11.937,12.52,19.971,28.12,26.357,44.907l0.428,1.133c1.197,3.193,2.336,6.426,3.434,9.688
	c0.258,0.767,0.514,1.536,0.768,2.307c0.296,0.901,0.591,1.802,0.882,2.707c0.371,1.154,0.738,2.312,1.102,3.471
	c1.262,4.02,2.481,8.064,3.685,12.112c0.31,1.043,0.619,2.086,0.928,3.129c0.572,1.931,1.142,3.861,1.713,5.788
	c0.2,0.675,0.4,1.349,0.6,2.022c0.309,1.039,0.619,2.077,0.929,3.113c0.192,0.639,0.384,1.276,0.576,1.913
	c0.24,0.793,0.48,1.586,0.721,2.376l0.222,0.724c0.701,2.289,1.412,4.566,2.138,6.827l0.317,0.982
	c0.221,0.684,0.443,1.366,0.668,2.048c0.388,1.176,0.779,2.349,1.176,3.516c0.512,1.503,1.034,2.996,1.566,4.48
	c0.177,0.494,0.356,0.988,0.534,1.48c0.54,1.476,1.089,2.942,1.652,4.395c1.778,4.594,3.684,9.064,5.767,13.371
	c0.333,0.689,0.669,1.375,1.011,2.055c2.469,4.905,5.184,9.582,8.222,13.966c0.608,0.877,1.228,1.742,1.863,2.594
	c0.634,0.853,1.282,1.693,1.944,2.521c0.662,0.828,1.339,1.643,2.03,2.445c2.419,2.805,5.019,5.448,7.828,7.906
	c1.204,1.054,2.446,2.073,3.728,3.056c2.565,1.967,5.291,3.791,8.195,5.457c0.637,0.365,1.278,0.717,1.922,1.061l0.297,0.16
	l0.788,0.407l0.334,0.173l0.731,0.362l0.404,0.2l0.676,0.32l0.468,0.222l0.74,0.337l0.39,0.177l0.772,0.336l0.385,0.167l0.686,0.287
	l0.487,0.202l0.638,0.256l0.525,0.208l0.693,0.266l0.466,0.178l0.751,0.276l0.42,0.153l0.731,0.257l0.463,0.162l0.679,0.23
	l0.518,0.173l0.664,0.215l0.532,0.17l0.629,0.195l0.584,0.18l0.649,0.193l0.526,0.155l0.725,0.207l0.483,0.136l0.731,0.2
	l0.472,0.128l0.748,0.196l0.48,0.125l0.678,0.171l0.568,0.142l0.696,0.169l0.485,0.116l0.756,0.176l0.487,0.112l0.752,0.169
	l0.458,0.102l0.77,0.167l0.494,0.105l0.718,0.15l0.522,0.108l0.691,0.139l0.583,0.116l0.659,0.129l0.541,0.104l0.809,0.153
	l0.379,0.071l0.894,0.164l0.338,0.061l0.898,0.161l0.352,0.061l0.938,0.163l0.284,0.049l0.98,0.166l0.268,0.045l0.909,0.151
	l0.423,0.07l0.879,0.143l0.325,0.052l0.976,0.157l0.181,0.029c4.427,0.703,8.874,1.359,13.307,2.077l0.105,0.017
	c0.79,0.128,1.58,0.258,2.37,0.392l0.195,0.033c0.825,0.139,1.648,0.281,2.471,0.427l0.021,0.004l1.069,0.192l0.246,0.044l1,0.186
	l0.254,0.047l0.982,0.188l0.287,0.055c2.478,0.482,4.942,1.008,7.386,1.598l0.113,0.027l1.138,0.281l0.135,0.034l1.174,0.301
	l0.106,0.028l1.012,0.271l0.237,0.064l0.956,0.267l0.224,0.063l1.153,0.335l0.132,0.04l1.084,0.329l0.053,0.017l0.195,0.061
	l0.097,0.031l0.86,0.273l0.057,0.018l0.314,0.102l0.054,0.018l0.838,0.279l0.095,0.031l0.244,0.082l0.052,0.017l0.828,0.288
	l0.139,0.049l0.245,0.086l0.041,0.014l1.19,0.433c6.868,2.559,13.254,5.84,19.262,9.693c0.462,0.297,0.922,0.596,1.38,0.899
	c0.916,0.607,1.823,1.226,2.721,1.858c2.246,1.581,4.439,3.241,6.586,4.972c4.723,3.808,9.222,7.959,13.559,12.363
	c1.355,1.376,2.695,2.777,4.021,4.2c0.599,0.642,1.194,1.289,1.788,1.94c27.067,29.708,48.639,68.171,81.63,91.106
	c4.665,3.243,9.507,6.123,14.493,8.656l0.723,0.364c0.599,0.299,1.198,0.594,1.801,0.884l0.141,0.068
	c0.648,0.31,1.298,0.613,1.95,0.912c0.469,0.214,0.938,0.427,1.409,0.635c0.646,0.286,1.294,0.567,1.944,0.842
	c0.652,0.277,1.307,0.547,1.964,0.812l0.906,0.363l1.196,0.466c1.48,0.568,2.969,1.109,4.468,1.624
	c0.899,0.308,1.802,0.608,2.707,0.896c1.839,0.588,3.692,1.135,5.555,1.645c0.514,0.14,1.028,0.278,1.544,0.412l0.611,0.158
	c0.99,0.253,1.983,0.496,2.978,0.728l0.549,0.127c0.618,0.141,1.237,0.278,1.857,0.412l0.509,0.108
	c1.439,0.303,2.884,0.585,4.333,0.844c0.939,0.168,1.879,0.327,2.822,0.477c0.685,0.109,1.369,0.213,2.055,0.312l0.348,0.05
	c0.7,0.1,1.4,0.195,2.102,0.284l0.309,0.039c1.573,0.198,3.151,0.372,4.733,0.522l1.224,0.111c1.2,0.103,2.402,0.193,3.605,0.27
	l0.15,0.009c1.188,0.074,2.377,0.135,3.569,0.183l0.094,0.004c2.253,0.089,4.511,0.131,6.772,0.127
	c1.13-0.001,2.261-0.015,3.392-0.041c1.131-0.025,2.264-0.061,3.396-0.109l1.239-0.057c2.066-0.102,4.131-0.241,6.196-0.417
	l1.239-0.11c1.197-0.111,2.395-0.234,3.591-0.369l0.252-0.029c0.736-0.084,1.471-0.173,2.207-0.265l0.279-0.036
	c1.6-0.206,3.198-0.432,4.794-0.68c0.822-0.128,1.642-0.261,2.463-0.4c0.82-0.139,1.639-0.284,2.458-0.434
	c0.701-0.129,1.403-0.262,2.103-0.399c1.402-0.274,2.8-0.564,4.195-0.869c0.698-0.153,1.394-0.309,2.09-0.47
	c2.088-0.482,4.168-1.001,6.238-1.553c0.69-0.184,1.379-0.373,2.067-0.564l0.6-0.168c0.99-0.28,1.978-0.568,2.964-0.863
	c0.985-0.295,1.968-0.599,2.948-0.91c0.49-0.155,0.979-0.313,1.468-0.472c1.465-0.479,2.924-0.974,4.377-1.486
	c0.968-0.342,1.933-0.692,2.895-1.048c2.885-1.07,5.74-2.208,8.56-3.41c3.635-1.551,7.222-3.195,10.763-4.927
	c2.952-1.443,5.87-2.948,8.757-4.509c0.948-0.513,1.893-1.034,2.835-1.559c0.778-0.434,1.556-0.87,2.33-1.313
	c1.14-0.652,2.275-1.312,3.406-1.981c1.13-0.669,2.256-1.346,3.378-2.032c1.122-0.686,2.238-1.38,3.351-2.082
	c0.555-0.351,1.111-0.704,1.664-1.059c0.917-0.588,1.83-1.183,2.741-1.781c0.739-0.487,1.478-0.974,2.212-1.467
	c0.547-0.367,1.093-0.735,1.638-1.106c3.673-2.499,7.295-5.084,10.871-7.744l0.806-0.602c0.799-0.599,1.597-1.201,2.392-1.808
	c0.653-0.497,1.304-0.997,1.954-1.499c0.524-0.405,1.046-0.812,1.568-1.22c6.198-4.851,12.256-9.924,18.19-15.167l0.346-0.305
	c4.935-4.37,9.784-8.857,14.557-13.434c0.482-0.463,0.964-0.927,1.445-1.391c0.962-0.929,1.921-1.862,2.877-2.798
	c1.434-1.404,2.861-2.816,4.282-4.235c0.6-0.599,1.199-1.199,1.797-1.801c1.168-1.176,2.332-2.355,3.491-3.539l0.072-0.074
	c1.143-1.167,2.282-2.338,3.417-3.513c0.626-0.648,1.251-1.297,1.875-1.946c1.109-1.155,2.215-2.314,3.317-3.475l0.178-0.187
	c2.854-3.009,5.685-6.037,8.493-9.074c8.68-9.387,17.32-18.986,25.981-28.652c2.599-2.9,5.199-5.806,7.803-8.714
	c2.604-2.909,5.212-5.819,7.824-8.728l0.341-0.38c2.637-2.936,5.28-5.869,7.931-8.797c5.299-5.856,10.628-11.689,15.999-17.466
	c2.685-2.889,5.382-5.764,8.09-8.621l0.179-0.189c4.526-4.771,9.086-9.494,13.688-14.148c13.679-13.833,27.734-27.062,42.372-39.201
	c1.115-0.924,2.233-1.841,3.355-2.753c1.326-1.078,2.657-2.146,3.993-3.205l1.049-0.829c2.119-1.669,4.252-3.313,6.397-4.933
	l1.259-0.946c2.084-1.56,4.181-3.096,6.292-4.606c0.493-0.353,0.988-0.705,1.482-1.055c2.047-1.45,4.107-2.875,6.179-4.275
	c3.218-2.174,6.466-4.286,9.748-6.334c1.965-1.226,3.942-2.429,5.932-3.608c3.474-2.059,6.987-4.043,10.539-5.948
	c1.874-1.006,3.76-1.989,5.657-2.949c15.316-7.757,31.369-14.034,48.327-18.435c5.797-1.505,11.649-2.77,17.541-3.859
	c1.124-0.208,2.252-0.408,3.379-0.604c1.826-0.317,3.654-0.62,5.486-0.907c0.988-0.155,1.977-0.306,2.965-0.453
	c1.98-0.295,3.961-0.574,5.947-0.842c1.984-0.267,3.972-0.522,5.961-0.767c1.99-0.245,3.982-0.48,5.974-0.707l0.517-0.059
	c10.041-1.139,20.118-2.088,30.156-3.15c0.843-0.089,1.687-0.179,2.529-0.27c3.372-0.364,6.74-0.744,10.098-1.151
	c2.519-0.305,5.034-0.626,7.544-0.966c0.627-0.085,1.254-0.172,1.88-0.26c1.253-0.176,2.505-0.356,3.755-0.543
	c1.25-0.187,2.498-0.38,3.745-0.579c1.87-0.299,3.736-0.613,5.598-0.943c2.481-0.441,4.956-0.911,7.42-1.416
	c0.822-0.168,1.642-0.34,2.462-0.516c2.458-0.529,4.907-1.094,7.345-1.7c0.812-0.202,1.624-0.408,2.434-0.62
	c4.861-1.268,9.678-2.708,14.44-4.357c0.794-0.275,1.586-0.555,2.376-0.842c1.582-0.574,3.156-1.171,4.725-1.794
	c1.569-0.623,3.131-1.271,4.686-1.947l1.007-0.445l0.328-0.149l0.679-0.311l0.403-0.189l0.596-0.282l0.396-0.191l0.633-0.309
	l0.385-0.191l0.63-0.318l0.35-0.179l0.696-0.361l0.307-0.161l0.76-0.406l0.239-0.128l0.953-0.525l0.446-0.252l0.51-0.288
	l0.508-0.294l0.459-0.267l0.504-0.298l0.449-0.269l0.511-0.309l0.45-0.276l0.511-0.317l0.411-0.259l0.542-0.344l0.406-0.262
	l0.524-0.339l0.229-0.151c0.453-0.298,0.903-0.6,1.351-0.906l0.214-0.144l0.695-0.481l0.189-0.131l0.687-0.485l0.222-0.158
	l0.672-0.484l0.205-0.149l0.732-0.538l0.055-0.042l1.308-0.988l0.15-0.114l1.288-1.005l0.101-0.08l1.279-1.031l0.082-0.067
	l1.249-1.038l0.084-0.07C1674.648,1528.859,1693.652,1483.471,1675.778,1449.895z"/>
<path style="fill:#A55F26;" d="M1681.346,1465.613c-5.398,14.618-13.295,28.428-22.569,40.367
	c-18.596,23.943-47.139,35.711-76.839,37.389c-30.095,1.7-60.016-5.123-89.506-10.081c-34.082-5.73-69.162-10.067-103.761-9.669
	c-34.685,0.4-68.909,6.854-99.111,24.583c-23.804,13.973-42.788,34.109-59.34,55.948c-33.092,43.666-57.551,94.438-100.739,129.637
	c-43.221,35.227-115.623,63.413-155.979,9.127c-15.77-21.212-19.88-48.856-36.02-69.72c-18.775-24.272-52.263-22.944-79.69-19.272
	c-30.743,4.116-61.937,12.509-93.021,6.401c-26.057-5.119-47.089-21.397-53.26-47.863c-5.191-22.264-1.153-45.472-6.016-67.692
	c-2.331-10.641-6.983-20.553-16.158-26.927c-11.09-7.704-24.849-10.596-38.022-12.214c-28.029-3.442-56.419,0.044-84.483-3.125
	c-22.427-2.532-44.222-8.673-65.193-16.924c-14.025-5.518-29.409-13.021-43.42-22.497c3.087,7.239,7.157,14.022,12.303,19.657
	c21.146,23.163,52.424,32.672,82.179,41.068c5.802,1.637,11.663,3.301,17.5,5.088c1.167,0.358,2.333,0.72,3.498,1.088
	c1.164,0.368,2.328,0.741,3.489,1.121c1.16,0.38,2.319,0.766,3.474,1.159c1.733,0.591,3.459,1.197,5.177,1.823
	c1.145,0.417,2.286,0.842,3.423,1.276c1.136,0.435,2.268,0.878,3.394,1.331c1.127,0.453,2.249,0.917,3.363,1.39
	c3.904,1.658,7.733,3.446,11.461,5.397c1.866,0.976,3.707,1.995,5.518,3.057c0.954,0.56,1.901,1.132,2.839,1.717
	c0.762,0.475,1.518,0.959,2.267,1.452l1.2,0.799c1.257,0.85,2.496,1.724,3.717,2.627l0.781,0.583
	c4.096,3.089,7.976,6.496,11.586,10.281c11.937,12.52,19.971,28.12,26.357,44.907l0.428,1.133c1.197,3.193,2.336,6.426,3.434,9.688
	c0.258,0.767,0.514,1.536,0.768,2.307c0.296,0.901,0.591,1.802,0.882,2.707c0.371,1.154,0.738,2.312,1.102,3.471
	c1.262,4.02,2.481,8.064,3.685,12.112c0.31,1.043,0.619,2.086,0.928,3.129c0.572,1.931,1.142,3.861,1.713,5.788
	c0.2,0.675,0.4,1.349,0.6,2.022c0.309,1.039,0.619,2.077,0.929,3.113c0.192,0.639,0.384,1.276,0.576,1.913
	c0.24,0.793,0.48,1.586,0.721,2.376l0.222,0.724c0.701,2.289,1.412,4.566,2.138,6.827l0.317,0.982
	c0.221,0.684,0.443,1.366,0.668,2.048c0.388,1.176,0.779,2.349,1.176,3.516c0.512,1.503,1.034,2.996,1.566,4.48
	c0.177,0.494,0.356,0.988,0.534,1.48c0.54,1.476,1.089,2.942,1.652,4.395c1.778,4.594,3.684,9.064,5.767,13.371
	c0.333,0.689,0.669,1.375,1.011,2.055c2.469,4.905,5.184,9.582,8.222,13.966c0.608,0.877,1.228,1.742,1.863,2.594
	c0.634,0.853,1.282,1.693,1.944,2.521c0.662,0.828,1.339,1.643,2.03,2.445c2.419,2.805,5.019,5.448,7.828,7.906
	c1.204,1.054,2.446,2.073,3.728,3.056c2.565,1.967,5.291,3.791,8.195,5.457c0.637,0.365,1.278,0.717,1.922,1.061l0.297,0.16
	l0.788,0.407l0.334,0.173l0.731,0.362l0.404,0.2l0.676,0.32l0.468,0.222l0.74,0.337l0.39,0.177l0.772,0.336l0.385,0.167l0.686,0.287
	l0.487,0.202l0.638,0.256l0.525,0.208l0.693,0.266l0.466,0.178l0.751,0.276l0.42,0.153l0.731,0.257l0.463,0.162l0.679,0.23
	l0.518,0.173l0.664,0.215l0.532,0.17l0.629,0.195l0.584,0.18l0.649,0.193l0.526,0.155l0.725,0.207l0.483,0.136l0.731,0.2
	l0.472,0.128l0.748,0.196l0.48,0.125l0.678,0.171l0.568,0.142l0.696,0.169l0.485,0.116l0.756,0.176l0.487,0.112l0.752,0.169
	l0.458,0.102l0.77,0.167l0.494,0.105l0.718,0.15l0.522,0.108l0.691,0.139l0.583,0.116l0.659,0.129l0.541,0.104l0.809,0.153
	l0.379,0.071l0.894,0.164l0.338,0.061l0.898,0.161l0.352,0.061l0.938,0.163l0.284,0.049l0.98,0.166l0.268,0.045l0.909,0.151
	l0.423,0.07l0.879,0.143l0.325,0.052l0.976,0.157l0.181,0.029c4.427,0.703,8.874,1.359,13.307,2.077l0.105,0.017
	c0.79,0.128,1.58,0.258,2.37,0.392l0.195,0.033c0.825,0.139,1.648,0.281,2.471,0.427l0.021,0.004l1.069,0.192l0.246,0.044l1,0.186
	l0.254,0.047l0.982,0.188l0.287,0.055c2.478,0.482,4.942,1.008,7.386,1.598l0.113,0.027l1.138,0.281l0.135,0.034l1.174,0.301
	l0.106,0.028l1.012,0.271l0.237,0.064l0.956,0.267l0.224,0.063l1.153,0.335l0.132,0.04l1.084,0.329l0.053,0.017l0.195,0.061
	l0.097,0.031l0.86,0.273l0.057,0.018l0.314,0.102l0.054,0.018l0.838,0.279l0.095,0.031l0.244,0.082l0.052,0.017l0.828,0.288
	l0.139,0.049l0.245,0.086l0.041,0.014l1.19,0.433c6.868,2.559,13.254,5.84,19.262,9.693c0.462,0.297,0.922,0.596,1.38,0.899
	c0.916,0.607,1.823,1.226,2.721,1.858c2.246,1.581,4.439,3.241,6.586,4.972c4.723,3.808,9.222,7.959,13.559,12.363
	c1.355,1.376,2.695,2.777,4.021,4.2c0.599,0.642,1.194,1.289,1.788,1.94c27.067,29.708,48.639,68.171,81.63,91.106
	c4.665,3.243,9.507,6.123,14.493,8.656l0.723,0.364c0.599,0.299,1.198,0.594,1.801,0.884l0.141,0.068
	c0.648,0.31,1.298,0.613,1.95,0.912c0.469,0.214,0.938,0.427,1.409,0.635c0.646,0.286,1.294,0.567,1.944,0.842
	c0.652,0.277,1.307,0.547,1.964,0.812l0.906,0.363l1.196,0.466c1.48,0.568,2.969,1.109,4.468,1.624
	c0.899,0.308,1.802,0.608,2.707,0.896c1.839,0.588,3.692,1.135,5.555,1.645c0.514,0.14,1.028,0.278,1.544,0.412l0.611,0.158
	c0.99,0.253,1.983,0.496,2.978,0.728l0.549,0.127c0.618,0.141,1.237,0.278,1.857,0.412l0.509,0.108
	c1.439,0.303,2.884,0.585,4.333,0.844c0.939,0.168,1.879,0.327,2.822,0.477c0.685,0.109,1.369,0.213,2.055,0.312l0.348,0.05
	c0.7,0.1,1.4,0.195,2.102,0.284l0.309,0.039c1.573,0.198,3.151,0.372,4.733,0.522l1.224,0.111c1.2,0.103,2.402,0.193,3.605,0.27
	l0.15,0.009c1.188,0.074,2.377,0.135,3.569,0.183l0.094,0.004c2.253,0.089,4.511,0.131,6.772,0.127
	c1.13-0.001,2.261-0.015,3.392-0.041c1.131-0.025,2.264-0.061,3.396-0.109l1.239-0.057c2.066-0.102,4.131-0.241,6.196-0.417
	l1.239-0.11c1.197-0.111,2.395-0.234,3.591-0.369l0.252-0.029c0.736-0.084,1.471-0.173,2.207-0.265l0.279-0.036
	c1.6-0.206,3.198-0.432,4.794-0.68c0.822-0.128,1.642-0.261,2.463-0.4c0.82-0.139,1.639-0.284,2.458-0.434
	c0.701-0.129,1.403-0.262,2.103-0.399c1.402-0.274,2.8-0.564,4.195-0.869c0.698-0.153,1.394-0.309,2.09-0.47
	c2.088-0.482,4.168-1.001,6.238-1.553c0.69-0.184,1.379-0.373,2.067-0.564l0.6-0.168c0.99-0.28,1.978-0.568,2.964-0.863
	c0.985-0.295,1.968-0.599,2.948-0.91c0.49-0.155,0.979-0.313,1.468-0.472c1.465-0.479,2.924-0.974,4.377-1.486
	c0.968-0.342,1.933-0.692,2.895-1.048c2.885-1.07,5.74-2.208,8.56-3.41c3.635-1.551,7.222-3.195,10.763-4.927
	c2.952-1.443,5.87-2.948,8.757-4.509c0.948-0.513,1.893-1.034,2.835-1.559c0.778-0.434,1.556-0.87,2.33-1.313
	c1.14-0.652,2.275-1.312,3.406-1.981c1.13-0.669,2.256-1.346,3.378-2.032c1.122-0.686,2.238-1.38,3.351-2.082
	c0.555-0.351,1.111-0.704,1.664-1.059c0.917-0.588,1.83-1.183,2.741-1.781c0.739-0.487,1.478-0.974,2.212-1.467
	c0.547-0.367,1.093-0.735,1.638-1.106c3.673-2.499,7.295-5.084,10.871-7.744l0.806-0.602c0.799-0.599,1.597-1.201,2.392-1.808
	c0.653-0.497,1.304-0.997,1.954-1.499c0.524-0.405,1.046-0.812,1.568-1.22c6.198-4.851,12.256-9.924,18.19-15.167l0.346-0.305
	c4.935-4.37,9.784-8.857,14.557-13.434c0.482-0.463,0.964-0.927,1.445-1.391c0.962-0.929,1.921-1.862,2.877-2.798
	c1.434-1.404,2.861-2.816,4.282-4.235c0.6-0.599,1.199-1.199,1.797-1.801c1.168-1.176,2.332-2.355,3.491-3.539l0.072-0.074
	c1.143-1.167,2.282-2.338,3.417-3.513c0.626-0.648,1.251-1.297,1.875-1.946c1.109-1.155,2.215-2.314,3.317-3.475l0.178-0.187
	c2.854-3.009,5.685-6.037,8.493-9.074c8.68-9.387,17.32-18.986,25.981-28.652c2.599-2.9,5.199-5.806,7.803-8.714
	c2.604-2.909,5.212-5.819,7.824-8.728l0.341-0.38c2.637-2.936,5.28-5.869,7.931-8.797c5.299-5.856,10.628-11.689,15.999-17.466
	c2.685-2.889,5.382-5.764,8.09-8.621l0.179-0.189c4.526-4.771,9.086-9.494,13.688-14.148c13.679-13.833,27.734-27.062,42.372-39.201
	c1.115-0.924,2.233-1.841,3.355-2.753c1.326-1.078,2.657-2.146,3.993-3.205l1.049-0.829c2.119-1.669,4.252-3.313,6.397-4.933
	l1.259-0.946c2.084-1.56,4.181-3.096,6.292-4.606c0.493-0.353,0.988-0.705,1.482-1.055c2.047-1.45,4.107-2.875,6.179-4.275
	c3.218-2.174,6.466-4.286,9.748-6.334c1.965-1.226,3.942-2.429,5.932-3.608c3.474-2.059,6.987-4.043,10.539-5.948
	c1.874-1.006,3.76-1.989,5.657-2.949c15.316-7.757,31.369-14.034,48.327-18.435c5.797-1.505,11.649-2.77,17.541-3.859
	c1.124-0.208,2.252-0.408,3.379-0.604c1.826-0.317,3.654-0.62,5.486-0.907c0.988-0.155,1.977-0.306,2.965-0.453
	c1.98-0.295,3.961-0.574,5.947-0.842c1.984-0.267,3.972-0.522,5.961-0.767c1.99-0.245,3.982-0.48,5.974-0.707l0.517-0.059
	c10.041-1.139,20.118-2.088,30.156-3.15c0.843-0.089,1.687-0.179,2.529-0.27c3.372-0.364,6.74-0.744,10.098-1.151
	c2.519-0.305,5.034-0.626,7.544-0.966c0.627-0.085,1.254-0.172,1.88-0.26c1.253-0.176,2.505-0.356,3.755-0.543
	c1.25-0.187,2.498-0.38,3.745-0.579c1.87-0.299,3.736-0.613,5.598-0.943c2.481-0.441,4.956-0.911,7.42-1.416
	c0.822-0.168,1.642-0.34,2.462-0.516c2.458-0.529,4.907-1.094,7.345-1.7c0.812-0.202,1.624-0.408,2.434-0.62
	c4.861-1.268,9.678-2.708,14.44-4.357c0.794-0.275,1.586-0.555,2.376-0.842c1.582-0.574,3.156-1.171,4.725-1.794
	c1.569-0.623,3.131-1.271,4.686-1.947l1.007-0.445l0.328-0.149l0.679-0.311l0.403-0.189l0.596-0.282l0.396-0.191l0.633-0.309
	l0.385-0.191l0.63-0.318l0.35-0.179l0.696-0.361l0.307-0.161l0.76-0.406l0.239-0.128l0.953-0.525l0.446-0.252l0.51-0.288
	l0.508-0.294l0.459-0.267l0.504-0.298l0.449-0.269l0.511-0.309l0.45-0.276l0.511-0.317l0.411-0.259l0.542-0.344l0.406-0.262
	l0.524-0.339l0.229-0.151c0.453-0.298,0.903-0.6,1.351-0.906l0.214-0.144l0.695-0.481l0.189-0.131l0.687-0.485l0.222-0.158
	l0.672-0.484l0.205-0.149l0.732-0.538l0.055-0.042l1.308-0.988l0.15-0.114l1.288-1.005l0.101-0.08
	C1668.7,1535.251,1687.859,1497.623,1681.346,1465.613z"/>
<path style="fill:#C27C43;" d="M1576.698,1573.745c-49.175,2.734-98.357-2.846-147.547-1.584
	c-46.116,1.184-91.262,9.138-127.129,40.14c-37.594,32.496-63.728,75.587-90.828,116.625
	c-27.143,41.105-56.077,82.746-97.231,111.068c-33.205,22.853-80.532,41.488-119.894,23.657
	c-30.158-13.661-47.068-45.369-62.576-72.824c-14.105-24.975-30.014-56.442-58.84-65.114c-24.36-7.329-48.91,3.637-72.019,10.693
	c-20.646,6.306-42.761,10.16-63.306,5.2c19.889,7.574,42.325,7.854,63.177,13.323l0.106,0.028l1.012,0.271l0.237,0.064l0.956,0.267
	l0.224,0.063l1.153,0.335l0.132,0.04l1.084,0.329l0.053,0.017l0.195,0.061l0.097,0.031l0.86,0.273l0.057,0.018l0.314,0.102
	l0.054,0.018l0.838,0.279l0.095,0.031l0.244,0.082l0.052,0.017l0.828,0.288l0.139,0.049l0.245,0.086l0.041,0.014l1.19,0.433
	c6.868,2.559,13.254,5.84,19.262,9.693c0.462,0.297,0.922,0.596,1.38,0.899c0.916,0.607,1.823,1.226,2.721,1.858
	c2.246,1.581,4.439,3.241,6.586,4.972c4.723,3.808,9.222,7.959,13.559,12.363c1.355,1.376,2.695,2.777,4.021,4.2
	c0.599,0.642,1.194,1.289,1.788,1.94c27.067,29.708,48.639,68.171,81.63,91.106c4.665,3.243,9.507,6.123,14.493,8.656l0.723,0.364
	c0.599,0.299,1.198,0.594,1.801,0.884l0.141,0.068c0.648,0.31,1.298,0.613,1.95,0.912c0.469,0.214,0.938,0.427,1.409,0.635
	c0.646,0.286,1.294,0.567,1.944,0.842c0.652,0.277,1.307,0.547,1.964,0.812l0.906,0.363l1.196,0.466
	c1.48,0.568,2.969,1.109,4.468,1.624c0.899,0.308,1.802,0.608,2.707,0.896c1.839,0.588,3.692,1.135,5.555,1.645
	c0.514,0.14,1.028,0.278,1.544,0.412l0.611,0.158c0.99,0.253,1.983,0.496,2.978,0.728l0.549,0.127
	c0.618,0.141,1.237,0.278,1.857,0.412l0.509,0.108c1.439,0.303,2.884,0.585,4.333,0.844c0.939,0.168,1.879,0.327,2.822,0.477
	c0.685,0.109,1.369,0.213,2.055,0.312l0.348,0.05c0.7,0.1,1.4,0.195,2.102,0.284l0.309,0.039c1.573,0.198,3.151,0.372,4.733,0.522
	l1.224,0.111c1.2,0.103,2.402,0.193,3.605,0.27l0.15,0.009c1.188,0.074,2.377,0.135,3.569,0.183l0.094,0.004
	c2.253,0.089,4.511,0.131,6.772,0.127c1.13-0.001,2.261-0.015,3.392-0.041c1.131-0.025,2.264-0.061,3.396-0.109l1.239-0.057
	c2.066-0.102,4.131-0.241,6.196-0.417l1.239-0.11c1.197-0.111,2.395-0.234,3.591-0.369l0.252-0.029
	c0.736-0.084,1.471-0.173,2.207-0.265l0.279-0.036c1.6-0.206,3.198-0.432,4.794-0.68c0.822-0.128,1.642-0.261,2.463-0.4
	c0.82-0.139,1.639-0.284,2.458-0.434c0.701-0.129,1.403-0.262,2.103-0.399c1.402-0.274,2.8-0.564,4.195-0.869
	c0.698-0.153,1.394-0.309,2.09-0.47c2.088-0.482,4.168-1.001,6.238-1.553c0.69-0.184,1.379-0.373,2.067-0.564l0.6-0.168
	c0.99-0.28,1.978-0.568,2.964-0.863c0.985-0.295,1.968-0.599,2.948-0.91c0.49-0.155,0.979-0.313,1.468-0.472
	c1.465-0.479,2.924-0.974,4.377-1.486c0.968-0.342,1.933-0.692,2.895-1.048c2.885-1.07,5.74-2.208,8.56-3.41
	c3.635-1.551,7.222-3.195,10.763-4.927c2.952-1.443,5.87-2.948,8.757-4.509c0.948-0.513,1.893-1.034,2.835-1.559
	c0.778-0.434,1.556-0.87,2.33-1.313c1.14-0.652,2.275-1.312,3.406-1.981c1.13-0.669,2.256-1.346,3.378-2.032
	c1.122-0.686,2.238-1.38,3.351-2.082c0.555-0.351,1.111-0.704,1.664-1.059c0.917-0.588,1.83-1.183,2.741-1.781
	c0.739-0.487,1.478-0.974,2.212-1.467c0.547-0.367,1.093-0.735,1.638-1.106c3.673-2.499,7.295-5.084,10.871-7.744l0.806-0.602
	c0.799-0.599,1.597-1.201,2.392-1.808c0.653-0.497,1.304-0.997,1.954-1.499c0.524-0.405,1.046-0.812,1.568-1.22
	c6.198-4.851,12.256-9.924,18.19-15.167l0.346-0.305c4.935-4.37,9.784-8.857,14.557-13.434c0.482-0.463,0.964-0.927,1.445-1.391
	c0.962-0.929,1.921-1.862,2.877-2.798c1.434-1.404,2.861-2.816,4.282-4.235c0.6-0.599,1.199-1.199,1.797-1.801
	c1.168-1.176,2.332-2.355,3.491-3.539l0.072-0.074c1.143-1.167,2.282-2.338,3.417-3.513c0.626-0.648,1.251-1.297,1.875-1.946
	c1.109-1.155,2.215-2.314,3.317-3.475l0.178-0.187c2.854-3.009,5.685-6.037,8.493-9.074c8.68-9.387,17.32-18.986,25.981-28.652
	c2.599-2.9,5.199-5.806,7.803-8.714c2.604-2.909,5.212-5.819,7.824-8.728l0.341-0.38c2.637-2.936,5.28-5.869,7.931-8.797
	c5.299-5.856,10.628-11.689,15.999-17.466c2.685-2.889,5.382-5.764,8.09-8.621l0.179-0.189c4.526-4.771,9.086-9.494,13.688-14.148
	c13.679-13.833,27.734-27.062,42.372-39.201c1.115-0.924,2.233-1.841,3.355-2.753c1.326-1.078,2.657-2.146,3.993-3.205l1.049-0.829
	c2.119-1.669,4.252-3.313,6.397-4.933l1.259-0.946c2.084-1.56,4.181-3.096,6.292-4.606c0.493-0.353,0.988-0.705,1.482-1.055
	c2.047-1.45,4.107-2.875,6.179-4.275c3.218-2.174,6.466-4.286,9.748-6.334c1.965-1.226,3.942-2.429,5.932-3.608
	c3.474-2.059,6.987-4.043,10.539-5.948c1.874-1.006,3.76-1.989,5.657-2.949c15.316-7.757,31.369-14.034,48.327-18.435
	c5.797-1.505,11.649-2.77,17.541-3.859c1.124-0.208,2.252-0.408,3.379-0.604c1.826-0.317,3.654-0.62,5.486-0.907
	c0.988-0.155,1.977-0.306,2.965-0.453c1.98-0.295,3.961-0.574,5.947-0.842c1.984-0.267,3.972-0.522,5.961-0.767
	c1.99-0.245,3.982-0.48,5.974-0.707l0.517-0.059c10.041-1.139,20.118-2.088,30.156-3.15c0.843-0.089,1.687-0.179,2.529-0.27
	c3.372-0.364,6.74-0.744,10.098-1.151c2.519-0.305,5.034-0.626,7.544-0.966c0.627-0.085,1.254-0.172,1.88-0.26
	c1.253-0.176,2.505-0.356,3.755-0.543c1.25-0.187,2.498-0.38,3.745-0.579c1.87-0.299,3.736-0.613,5.598-0.943
	c2.481-0.441,4.956-0.911,7.42-1.416c0.822-0.168,1.642-0.34,2.462-0.516c2.458-0.529,4.907-1.094,7.345-1.7
	c0.812-0.202,1.624-0.408,2.434-0.62c4.861-1.268,9.678-2.708,14.44-4.357c0.794-0.275,1.586-0.555,2.376-0.842
	c1.582-0.574,3.156-1.171,4.725-1.794c1.569-0.623,3.131-1.271,4.686-1.947c3.313-1.439,6.544-3.145,9.726-4.987
	C1610.719,1570.703,1593.63,1572.803,1576.698,1573.745z"/>
<path style="fill:#76A12D;" d="M1643.219,1442.916c-0.719-0.172-1.434-0.343-2.145-0.516c-0.757-0.183-1.509-0.368-2.258-0.552
	c-0.726-0.179-1.449-0.359-2.168-0.538c-1.086-0.272-2.167-0.544-3.236-0.818c-0.506-0.129-1.008-0.259-1.509-0.39l-1.032-0.268
	c-0.566-0.148-1.132-0.296-1.693-0.445c-0.583-0.154-1.163-0.309-1.741-0.464c-0.5-0.134-0.998-0.269-1.495-0.404l-0.045-0.012
	l-0.866-0.234l-0.862-0.238l-0.057-0.015c-0.508-0.14-1.014-0.28-1.519-0.42c-0.543-0.151-1.085-0.302-1.623-0.454l-0.863-0.245
	c-0.764-0.216-1.523-0.434-2.278-0.652c-0.551-0.159-1.1-0.319-1.646-0.479c-0.688-0.201-1.371-0.403-2.052-0.606
	c-2.041-0.608-4.049-1.221-6.024-1.839c-0.463-0.145-0.925-0.29-1.385-0.436c-0.794-0.251-1.583-0.504-2.367-0.757
	c-0.831-0.268-1.657-0.537-2.477-0.808c-1.209-0.399-2.405-0.8-3.59-1.203c-0.547-0.186-1.087-0.374-1.627-0.561
	c-0.684-0.236-1.362-0.472-2.038-0.71c-0.529-0.187-1.061-0.372-1.586-0.56c-0.574-0.205-1.146-0.411-1.715-0.617
	c-2.276-0.825-4.508-1.659-6.696-2.503l-0.463-0.18l-0.839-0.327c-1.195-0.466-2.382-0.934-3.552-1.406l-0.611-0.248l-0.059-0.024
	c-0.836-0.339-1.667-0.679-2.49-1.021c-0.522-0.217-1.041-0.435-1.557-0.653l-0.4-0.171c-0.514-0.219-1.027-0.437-1.538-0.656
	l-0.248-0.106l-1.325-0.577l-1.076-0.469l-0.301-0.134c-0.627-0.277-1.251-0.556-1.871-0.836l-0.817-0.369l-0.846-0.387
	c-0.701-0.321-1.399-0.643-2.091-0.966l-0.446-0.211l-0.932-0.44l-1.191-0.567l-0.561-0.27l-0.98-0.473l-0.198-0.096l-0.515-0.254
	l-1.253-0.618l-0.117-0.057l-0.468-0.233l-0.487-0.245l-0.991-0.499l-0.37-0.187l-0.571-0.294c-0.547-0.28-1.094-0.56-1.636-0.842
	l-0.307-0.16c-1.514-0.789-3.008-1.585-4.484-2.389l-0.02-0.011l-0.283-0.155l-0.117-0.064c-0.554-0.303-1.106-0.608-1.656-0.914
	l-0.349-0.193c-0.614-0.342-1.223-0.686-1.831-1.031l-0.198-0.113l-0.282-0.161c-0.46-0.262-0.919-0.525-1.375-0.789l-0.731-0.424
	l-0.593-0.346l-0.401-0.236c-0.708-0.416-1.412-0.835-2.113-1.254l-0.26-0.156c-0.742-0.446-1.479-0.895-2.214-1.345l-0.857-0.528
	l-0.4-0.247l-0.469-0.294l-0.952-0.595l-0.573-0.365l-1.27-0.808l-0.6-0.382l-0.662-0.431c-0.587-0.38-1.172-0.759-1.755-1.141
	l-1.199-0.792l-0.639-0.428l-1.092-0.732l-0.712-0.481l-1.261-0.861l-0.717-0.492l-1.257-0.872l-0.676-0.47
	c-0.633-0.443-1.264-0.888-1.892-1.335c-0.693-0.493-1.383-0.989-2.072-1.486l-0.623-0.452l-0.772-0.56l-1.149-0.842
	c-0.688-0.506-1.374-1.015-2.058-1.526l-0.491-0.368l-0.881-0.66l-1.319-1.002l-0.94-0.714c-1.916-1.464-3.825-2.948-5.729-4.452
	l-0.854-0.677c-0.45-0.356-0.899-0.71-1.348-1.069l-1.127-0.903l-1.129-0.908c-1.128-0.911-2.258-1.829-3.39-2.755l-1.132-0.927
	c-1.886-1.551-3.779-3.123-5.683-4.716c-0.761-0.637-1.525-1.277-2.29-1.921c-1.147-0.966-2.3-1.94-3.458-2.921
	c-1.158-0.981-2.322-1.971-3.494-2.968l-1.173-1c-2.039-1.739-4.077-3.572-6.115-5.354l-0.015,0.056
	c-1.265-1.106-2.53-2.218-3.795-3.34l-0.032-0.028c-2.191-1.943-4.383-3.907-6.575-5.891l-0.077-0.069
	c-1.081-0.978-2.162-1.961-3.243-2.947l-0.047-0.043c-1.077-0.983-2.155-1.97-3.233-2.96l-0.142-0.131
	c-1.067-0.98-2.133-1.964-3.202-2.951l-0.068-0.063c-1.023-0.947-2.047-1.896-3.071-2.848l-0.443-0.412
	c-0.969-0.901-1.938-1.805-2.907-2.71l-0.482-0.449c-0.853-0.797-1.706-1.595-2.56-2.394c-0.499-0.467-0.999-0.936-1.498-1.404
	l-1.198-1.124c-22.63-21.232-45.654-43.281-69.976-62.705c-24.404-6.917-50.078-7.894-76.224-1.203
	c-47.795,12.231-84.832,44.549-125.628,70.364c-40.825,25.833-87.242,43.481-135.562,47.621
	c-48.667,4.169-100.332-2.848-146.745-17.706c-48.11-15.401-89.508-45.717-137.629-60.896
	c-45.127-14.235-91.392-11.127-134.446,8.482c-39.907,18.175-75.108,48.017-94.639,87.724
	c-8.514,17.309-14.607,36.396-16.503,55.735h44.982h0h1073.559l0,0h54.529h0.25h0
	C1664.141,1447.651,1653.324,1445.327,1643.219,1442.916z"/>
<path style="fill:#618F2F;" d="M1410.068,1408.852c-47.256,16.633-96.455,16.046-145.374,8.354
	c-25.129-3.952-49.96-9.593-75.076-13.578c-24.672-3.914-49.694-5.082-74.648-4.515c-101.618,2.312-199.885,33.169-301.168,38.458
	c-59.99,3.133-119.885,7.952-179.805,12.324h987.002l0,0h54.529h0.25h0c-11.637-2.244-22.454-4.568-32.559-6.98
	c-0.719-0.172-1.434-0.343-2.145-0.516c-0.757-0.183-1.509-0.368-2.258-0.552c-0.726-0.179-1.449-0.359-2.168-0.538
	c-1.086-0.272-2.167-0.544-3.236-0.818c-0.506-0.129-1.008-0.259-1.509-0.39l-1.032-0.268c-0.566-0.148-1.132-0.296-1.693-0.445
	c-0.583-0.154-1.163-0.309-1.741-0.464c-0.5-0.134-0.998-0.269-1.495-0.404l-0.045-0.012l-0.866-0.234l-0.862-0.238l-0.057-0.015
	c-0.508-0.14-1.014-0.28-1.519-0.42c-0.543-0.151-1.085-0.302-1.623-0.454l-0.863-0.245c-0.764-0.216-1.523-0.434-2.278-0.652
	c-0.551-0.159-1.1-0.319-1.646-0.479c-0.688-0.201-1.371-0.403-2.052-0.606c-2.041-0.608-4.049-1.221-6.024-1.839
	c-0.463-0.145-0.925-0.29-1.385-0.436c-0.794-0.251-1.583-0.504-2.367-0.757c-0.831-0.268-1.657-0.537-2.477-0.808
	c-1.209-0.399-2.405-0.8-3.59-1.203c-0.547-0.186-1.087-0.374-1.627-0.561c-0.684-0.236-1.362-0.472-2.038-0.71
	c-0.529-0.187-1.061-0.372-1.586-0.56c-0.574-0.205-1.146-0.411-1.715-0.617c-2.276-0.825-4.508-1.659-6.696-2.503l-0.463-0.18
	l-0.839-0.327c-1.195-0.466-2.382-0.934-3.552-1.406l-0.611-0.248l-0.059-0.024c-0.836-0.339-1.667-0.679-2.49-1.021
	c-0.522-0.217-1.041-0.435-1.557-0.653l-0.4-0.171c-0.514-0.219-1.027-0.437-1.538-0.656l-0.248-0.106l-1.325-0.577l-1.076-0.469
	l-0.301-0.134c-0.627-0.277-1.251-0.556-1.871-0.836l-0.817-0.369l-0.846-0.387c-0.701-0.321-1.399-0.643-2.091-0.966l-0.446-0.211
	l-0.932-0.44l-1.191-0.567l-0.561-0.27l-0.98-0.473l-0.198-0.096l-0.515-0.254l-1.253-0.618l-0.117-0.057l-0.468-0.233l-0.487-0.245
	l-0.991-0.499l-0.37-0.187l-0.571-0.294c-0.547-0.28-1.094-0.56-1.636-0.842l-0.307-0.16c-1.514-0.789-3.008-1.585-4.484-2.389
	l-0.02-0.011l-0.283-0.155l-0.117-0.064c-0.554-0.303-1.106-0.608-1.656-0.914l-0.349-0.193c-0.614-0.342-1.223-0.686-1.831-1.031
	l-0.198-0.113l-0.282-0.161c-0.46-0.262-0.919-0.525-1.375-0.789l-0.731-0.424l-0.593-0.346l-0.401-0.236
	c-0.708-0.416-1.412-0.835-2.113-1.254l-0.26-0.156c-0.742-0.446-1.479-0.895-2.214-1.345l-0.857-0.528l-0.4-0.247l-0.469-0.294
	l-0.952-0.595l-0.573-0.365l-1.27-0.808l-0.6-0.382l-0.662-0.431c-0.587-0.38-1.172-0.759-1.755-1.141l-1.199-0.792l-0.639-0.428
	l-1.092-0.732l-0.712-0.481l-1.261-0.861l-0.717-0.492l-1.257-0.872l-0.676-0.47c-0.633-0.443-1.264-0.888-1.892-1.335
	c-0.693-0.493-1.383-0.989-2.072-1.486l-0.623-0.452l-0.772-0.56l-1.149-0.842c-0.688-0.506-1.374-1.015-2.058-1.526l-0.491-0.368
	l-0.881-0.66l-1.319-1.002l-0.94-0.714c-1.916-1.464-3.825-2.948-5.729-4.452l-0.854-0.677c-0.45-0.356-0.899-0.71-1.348-1.069
	l-1.127-0.903l-1.129-0.908c-1.128-0.911-2.258-1.829-3.39-2.755l-1.132-0.927c-1.886-1.551-3.779-3.123-5.683-4.716
	c-0.761-0.637-1.525-1.277-2.29-1.921c-1.147-0.966-2.3-1.94-3.458-2.921c-1.158-0.981-2.322-1.971-3.494-2.968l-1.173-1
	c-2.039-1.739-4.077-3.572-6.115-5.354l-0.015,0.056C1464.799,1381.42,1438.558,1398.823,1410.068,1408.852z"/>
<path style="fill:#7EAB36;" d="M864.511,946.303c-1.196-1.195-2.39-2.373-3.579-3.534c0.67,1.561,1.312,3.133,1.926,4.716
	C863.401,947.08,863.962,946.701,864.511,946.303z"/>
<path style="fill:#3B6F2E;" d="M720.532,698.202c49.33,31.805,88.424,78.646,110.082,131.893c0.592,1.452,1.99,2.331,3.469,2.331
	c0.468,0,0.945-0.088,1.408-0.275c1.915-0.779,2.833-2.962,2.056-4.877c-22.234-54.658-62.35-102.731-112.962-135.361
	c-1.727-1.119-4.049-0.622-5.172,1.118C718.293,694.767,718.795,697.082,720.532,698.202z"/>
<path style="fill:#3B6F2E;" d="M466.239,738.721c-0.334-2.042-2.27-3.427-4.295-3.091c-2.039,0.334-3.425,2.255-3.091,4.294
	c6.948,42.599,24.823,91.379,47.817,130.487c0.697,1.184,1.947,1.844,3.228,1.844c0.646,0,1.299-0.166,1.895-0.516
	c1.781-1.048,2.375-3.34,1.328-5.123C490.91,828.838,472.944,779.832,466.239,738.721z"/>
<path style="fill:#7EAB36;" d="M1501.786,898.84c14.218-2.374,28.212-5.942,41.843-10.589
	C1530.484,892.388,1516.524,895.995,1501.786,898.84z"/>
<path style="fill:#7EAB36;" d="M1142.798,900.143c-0.781,0.224-1.565,0.45-2.351,0.68l0.448,0.919
	C1141.525,901.203,1142.159,900.67,1142.798,900.143z"/>
<path style="fill:#3B6F2E;" d="M1219.466,815.603c0.841,0,1.686-0.282,2.382-0.857c44.293-36.643,100.906-59.386,159.416-64.044
	c2.061-0.164,3.596-1.966,3.432-4.027c-0.166-2.059-1.966-3.581-4.027-3.432c-60.027,4.777-118.124,28.124-163.59,65.734
	c-1.593,1.318-1.815,3.676-0.499,5.269C1217.32,815.14,1218.39,815.603,1219.466,815.603z"/>
<path style="fill:#3B6F2E;" d="M1599.369,900.266c-1.63-1.272-3.988-0.977-5.25,0.655
	c-40.494,52.058-118.826,110.468-174.767,114.054c-2.063,0.131-3.627,1.912-3.495,3.973c0.127,1.981,1.773,3.503,3.732,3.503
	l0.241-0.008c58.797-3.768,137.79-62.411,180.195-116.928C1601.293,903.883,1601,901.532,1599.369,900.266z"/>
<path style="fill:#3B6F2E;" d="M991.586,447.655c-1.88-0.87-4.102-0.056-4.971,1.815c-23.656,50.88-31.338,108.814-21.63,163.133
	c0.324,1.813,1.9,3.084,3.678,3.084l0.663-0.059c2.034-0.363,3.388-2.307,3.026-4.341c-9.44-52.818-1.964-109.167,21.05-158.66
	C994.27,450.751,993.459,448.527,991.586,447.655z"/>
<path style="fill:#3B6F2E;" d="M1256.433,544.563c-0.853,1.88-0.017,4.098,1.866,4.95c0.499,0.227,1.023,0.334,1.54,0.334
	c1.425,0,2.784-0.816,3.411-2.2c24.117-53.272,8.424-153.661-20.682-219.941c-0.828-1.888-3.03-2.75-4.931-1.92
	c-1.89,0.831-2.75,3.038-1.92,4.931C1263.547,394.093,1279.381,493.871,1256.433,544.563z"/>
<path style="fill:#BFD464;" d="M780.001,928.549c-44.878-7.297-87.993-25.016-125.17-51.171
	c-34.779-24.468-69.701-68.408-115.632-69.654c-14.979-0.407-29.623,6.068-27.743,23.268c0.751,6.865,3.917,13.22,7.386,19.191
	c41.026,70.62,118.031,111.544,197.713,123.678c29.997,4.568,61.715,4.367,89.419-8.009c5.794-2.588,11.933-7.321,13.626-12.956
	C825.159,934.406,791.07,930.349,780.001,928.549z"/>
<path style="fill:#BFD464;" d="M1164.147,556.772c-15.08,36.856-38.525,70.291-68.193,96.869
	c-7.316,6.555-30.553,25.647-17.722,36.665c3.91,3.358,10.676,3.951,16.172,3.125c26.286-3.951,49.784-18.782,69.761-36.319
	c53.064-46.582,90.556-113.144,87.478-184.626c-0.26-6.044-0.925-12.228-3.613-17.648c-6.735-13.58-20.599-11.441-31.458-4.068
	C1183.271,473.381,1178.254,522.294,1164.147,556.772z"/>
<path style="fill:#BFD464;" d="M1486.597,970.625c9.629-11.707,1.999-23.477-9.177-30.364
	c-34.268-21.117-80.944-5.657-118.176-4.401c-39.798,1.342-79.904-6.349-116.303-22.525c-8.976-3.989-35.912-17.366-40.707-1.146
	c-1.461,4.943,0.769,11.357,3.775,16.033c14.372,22.361,37.528,37.722,61.709,48.761c64.232,29.325,140.312,36.26,204.26,4.168
	C1477.385,978.438,1482.753,975.298,1486.597,970.625z"/>
</svg>
